# xmcd CD database file
#
# Track frame offsets:
#	180
#	23790
#	40842
#	60954
#	78987
#	103499
#	117489
#	141959
#	150501
#	176644
#	196804
#	221468
#	243558
#
# Disc length: 3448 seconds
#
# Revision: 0
# Processed by: cddbd v1.5.2PL0 Copyright (c) Steve Scherf et al.
# Submitted via: CDex 1.70beta2
#
DISCID=af0d760d
DTITLE=Eric Le Lann et Michel Grailler - Trois heures du matin
DYEAR=1996
DGENRE=Jazz
TTITLE0=The Man I Love
TTITLE1=Lush Life
TTITLE2=Peace
TTITLE3=Broken Wings
TTITLE4=In A Sentimental Mood
TTITLE5=Delilha
TTITLE6=Marion La Nuit
TTITLE7=Twins Valse
TTITLE8=Valerie On Stage
TTITLE9=Beautiful Love
TTITLE10=When I Fall In Love
TTITLE11=God Bless The Child
TTITLE12=Où Sont Mes Amants ?
EXTD=YEAR: 1996
EXTT0=
EXTT1=
EXTT2=
EXTT3=
EXTT4=
EXTT5=
EXTT6=
EXTT7=
EXTT8=
EXTT9=
EXTT10=
EXTT11=
EXTT12=
PLAYORDER=
